<?xml version="1.0" encoding="UTF-8"?>
<!DOCTYPE svg PUBLIC "-//W3C//DTD SVG 1.1//EN" "http://www.w3.org/Graphics/SVG/1.1/DTD/svg11.dtd">
<svg xmlns="http://www.w3.org/2000/svg" version="1.1" width="498px" height="497px" style="shape-rendering:geometricPrecision; text-rendering:geometricPrecision; image-rendering:optimizeQuality; fill-rule:evenodd; clip-rule:evenodd" xmlns:xlink="http://www.w3.org/1999/xlink">
<g><path style="opacity:0.106" fill="#fefac5" d="M 278.5,134.5 C 277.273,140.954 274.44,146.62 270,151.5C 265.035,156.484 259.368,160.484 253,163.5C 248.791,175.542 244.458,187.542 240,199.5C 237.627,202.304 235.794,201.971 234.5,198.5C 230.219,186.822 226.053,175.155 222,163.5C 199.962,153.113 190.962,135.779 195,111.5C 204.945,84.9431 223.779,74.7764 251.5,81C 275.481,91.5147 284.481,109.348 278.5,134.5 Z M 236.5,102.5 C 239.369,105.022 242.703,106.689 246.5,107.5C 246.5,106.5 246.5,105.5 246.5,104.5C 247.5,104.5 248.5,104.5 249.5,104.5C 248.377,110.499 250.043,115.499 254.5,119.5C 252.76,124.45 251.76,129.617 251.5,135C 251.645,136.226 251.978,137.393 252.5,138.5C 249.113,139.964 245.78,140.298 242.5,139.5C 245.183,129.346 241.683,126.012 232,129.5C 231.793,133.089 231.293,136.589 230.5,140C 227.183,140.498 223.85,140.665 220.5,140.5C 220.797,133.442 220.464,126.442 219.5,119.5C 224.215,112.785 229.882,107.118 236.5,102.5 Z"/></g>
<g><path style="opacity:0.996" fill="#fce96a" d="M 278.5,114.5 C 279.732,121.024 279.732,127.691 278.5,134.5C 276.329,138.59 273.996,142.59 271.5,146.5C 273.002,140.81 275.169,135.477 278,130.5C 278.499,125.177 278.666,119.844 278.5,114.5 Z"/></g>
<g><path style="opacity:1" fill="#fce023" d="M 251.5,83.5 C 266.495,88.5021 275.495,98.8354 278.5,114.5C 278.666,119.844 278.499,125.177 278,130.5C 275.169,135.477 273.002,140.81 271.5,146.5C 265.915,153.279 259.248,158.613 251.5,162.5C 247.392,173.614 243.225,184.614 239,195.5C 238.577,196.956 237.744,197.456 236.5,197C 231.859,185.573 227.526,174.073 223.5,162.5C 197.814,149.605 189.98,129.605 200,102.5C 202.337,98.005 205.503,94.3384 209.5,91.5C 214.998,89.6897 219.998,86.8563 224.5,83C 233.535,82.2519 242.535,82.4185 251.5,83.5 Z M 236.5,102.5 C 229.882,107.118 224.215,112.785 219.5,119.5C 220.464,126.442 220.797,133.442 220.5,140.5C 223.85,140.665 227.183,140.498 230.5,140C 231.293,136.589 231.793,133.089 232,129.5C 241.683,126.012 245.183,129.346 242.5,139.5C 245.78,140.298 249.113,139.964 252.5,138.5C 251.978,137.393 251.645,136.226 251.5,135C 251.76,129.617 252.76,124.45 254.5,119.5C 250.043,115.499 248.377,110.499 249.5,104.5C 248.5,104.5 247.5,104.5 246.5,104.5C 246.5,105.5 246.5,106.5 246.5,107.5C 242.703,106.689 239.369,105.022 236.5,102.5 Z"/></g>
<g><path style="opacity:0.749" fill="#fceb7c" d="M 239.5,129.5 C 240.483,133.298 240.817,137.298 240.5,141.5C 244.833,141.5 249.167,141.5 253.5,141.5C 249.03,142.486 244.363,142.819 239.5,142.5C 239.5,138.167 239.5,133.833 239.5,129.5 Z"/></g>
<g><path style="opacity:0.16" fill="#fefac3" d="M 253.5,141.5 C 249.167,141.5 244.833,141.5 240.5,141.5C 240.817,137.298 240.483,133.298 239.5,129.5C 237.5,129.5 235.5,129.5 233.5,129.5C 233.5,133.5 233.5,137.5 233.5,141.5C 228.833,141.5 224.167,141.5 219.5,141.5C 219.5,134.833 219.5,128.167 219.5,121.5C 217.712,121.785 216.045,121.452 214.5,120.5C 221.549,112.271 229.216,105.105 237.5,99C 239.683,101.35 242.016,103.517 244.5,105.5C 245.386,104.675 245.719,103.675 245.5,102.5C 247.5,102.5 249.5,102.5 251.5,102.5C 251.335,106.182 251.501,109.848 252,113.5C 254.35,115.683 256.517,118.016 258.5,120.5C 257.372,121.262 256.205,121.929 255,122.5C 254.828,129.013 254.328,135.347 253.5,141.5 Z M 236.5,102.5 C 229.882,107.118 224.215,112.785 219.5,119.5C 220.464,126.442 220.797,133.442 220.5,140.5C 223.85,140.665 227.183,140.498 230.5,140C 231.293,136.589 231.793,133.089 232,129.5C 241.683,126.012 245.183,129.346 242.5,139.5C 245.78,140.298 249.113,139.964 252.5,138.5C 251.978,137.393 251.645,136.226 251.5,135C 251.76,129.617 252.76,124.45 254.5,119.5C 250.043,115.499 248.377,110.499 249.5,104.5C 248.5,104.5 247.5,104.5 246.5,104.5C 246.5,105.5 246.5,106.5 246.5,107.5C 242.703,106.689 239.369,105.022 236.5,102.5 Z"/></g>
<g><path style="opacity:1" fill="#f8e14e" d="M 251.5,83.5 C 242.535,82.4185 233.535,82.2519 224.5,83C 219.998,86.8563 214.998,89.6897 209.5,91.5C 213.268,87.1079 217.935,83.9412 223.5,82C 232.175,80.1316 240.842,80.1316 249.5,82C 250.416,82.2784 251.082,82.7784 251.5,83.5 Z"/></g>
<g><path style="opacity:1" fill="#fce028" d="M 191.5,265.5 C 173.681,250.869 155.347,236.703 136.5,223C 135.101,221.938 134.101,220.605 133.5,219C 135.794,216.039 138.46,213.373 141.5,211C 142.833,210.333 144.167,210.333 145.5,211C 161.064,223.179 176.731,235.179 192.5,247C 193.833,247.667 195.167,247.667 196.5,247C 204.32,240.591 212.32,234.425 220.5,228.5C 221.583,227.635 221.749,226.635 221,225.5C 205.227,213.37 189.393,201.37 173.5,189.5C 173.351,188.448 173.517,187.448 174,186.5C 177.463,184.524 180.63,182.19 183.5,179.5C 199.132,189.667 214.132,200.834 228.5,213C 230.443,214.555 232.61,215.722 235,216.5C 254.58,202.758 273.746,188.425 292.5,173.5C 293.768,172.572 295.101,172.405 296.5,173C 299.865,175.675 303.198,178.342 306.5,181C 286.778,195.863 267.111,211.03 247.5,226.5C 254.5,231.833 261.5,237.167 268.5,242.5C 287.642,228.192 306.642,213.692 325.5,199C 326.759,198.018 328.092,197.685 329.5,198C 333.005,200.675 336.339,203.509 339.5,206.5C 320.5,221.327 301.333,235.994 282,250.5C 281.251,251.635 281.417,252.635 282.5,253.5C 290.217,259.885 298.217,265.885 306.5,271.5C 307.833,272.5 307.833,273.5 306.5,274.5C 303.035,276.976 299.535,279.309 296,281.5C 286.703,275.039 277.536,268.373 268.5,261.5C 259.446,267.788 250.613,274.454 242,281.5C 241.316,282.784 241.483,283.951 242.5,285C 250.755,290.711 258.921,296.544 267,302.5C 267.45,305.064 266.284,306.564 263.5,307C 258.167,307.667 252.833,307.667 247.5,307C 229.309,292.417 210.642,278.584 191.5,265.5 Z M 243.5,243.5 C 246.239,246.384 249.239,249.051 252.5,251.5C 245.291,258.206 237.625,264.372 229.5,270C 228.5,270.667 227.5,270.667 226.5,270C 221.023,266.024 215.69,261.858 210.5,257.5C 218.5,251.006 226.666,244.673 235,238.5C 237.971,240.064 240.804,241.73 243.5,243.5 Z"/></g>
<g><path style="opacity:0.01" fill="#faf5d7" d="M 187.5,178.5 C 185.901,178.232 184.568,178.566 183.5,179.5C 180.63,182.19 177.463,184.524 174,186.5C 173.517,187.448 173.351,188.448 173.5,189.5C 173.5,190.167 173.5,190.833 173.5,191.5C 172.188,190.855 171.188,189.855 170.5,188.5C 172.464,185.295 174.131,181.962 175.5,178.5C 177.826,177.61 180.159,177.443 182.5,178C 180.23,175.498 181.063,173.998 185,173.5C 186.15,174.424 187.15,174.424 188,173.5C 188.507,174.996 188.007,176.163 186.5,177C 187.056,177.383 187.389,177.883 187.5,178.5 Z"/></g>
<g><path style="opacity:0.169" fill="#fffabf" d="M 191.5,265.5 C 210.642,278.584 229.309,292.417 247.5,307C 252.833,307.667 258.167,307.667 263.5,307C 266.284,306.564 267.45,305.064 267,302.5C 258.921,296.544 250.755,290.711 242.5,285C 241.483,283.951 241.316,282.784 242,281.5C 250.613,274.454 259.446,267.788 268.5,261.5C 277.536,268.373 286.703,275.039 296,281.5C 299.535,279.309 303.035,276.976 306.5,274.5C 307.833,273.5 307.833,272.5 306.5,271.5C 298.217,265.885 290.217,259.885 282.5,253.5C 281.417,252.635 281.251,251.635 282,250.5C 301.333,235.994 320.5,221.327 339.5,206.5C 336.339,203.509 333.005,200.675 329.5,198C 328.092,197.685 326.759,198.018 325.5,199C 306.642,213.692 287.642,228.192 268.5,242.5C 261.5,237.167 254.5,231.833 247.5,226.5C 267.111,211.03 286.778,195.863 306.5,181C 303.198,178.342 299.865,175.675 296.5,173C 295.101,172.405 293.768,172.572 292.5,173.5C 273.746,188.425 254.58,202.758 235,216.5C 232.61,215.722 230.443,214.555 228.5,213C 214.132,200.834 199.132,189.667 183.5,179.5C 184.568,178.566 185.901,178.232 187.5,178.5C 203.052,190.861 218.885,202.861 235,214.5C 254.771,200.4 274.271,185.9 293.5,171C 295.289,170.48 296.956,170.813 298.5,172C 302.195,174.7 305.528,177.7 308.5,181C 307.899,182.605 306.899,183.938 305.5,185C 286.879,198.297 268.879,212.297 251.5,227C 256.802,231.981 262.469,236.481 268.5,240.5C 287.5,226 306.5,211.5 325.5,197C 327.5,196.333 329.5,196.333 331.5,197C 335.339,200.009 339.006,203.176 342.5,206.5C 323.567,221.972 304.234,236.972 284.5,251.5C 292.207,258.704 300.373,265.371 309,271.5C 309.269,274.28 308.102,276.446 305.5,278C 302.991,279.421 300.657,281.088 298.5,283C 297.167,283.667 295.833,283.667 294.5,283C 285.975,276.308 277.308,269.808 268.5,263.5C 260.167,270 251.833,276.5 243.5,283C 251.756,289.045 259.923,295.212 268,301.5C 270.175,304.668 269.341,306.835 265.5,308C 261.911,308.207 258.411,308.707 255,309.5C 251.471,308.869 247.971,308.036 244.5,307C 226.647,293.303 208.98,279.47 191.5,265.5 Z"/></g>
<g><path style="opacity:0.176" fill="#fffcc5" d="M 173.5,189.5 C 189.393,201.37 205.227,213.37 221,225.5C 221.749,226.635 221.583,227.635 220.5,228.5C 212.32,234.425 204.32,240.591 196.5,247C 195.167,247.667 193.833,247.667 192.5,247C 176.731,235.179 161.064,223.179 145.5,211C 144.167,210.333 142.833,210.333 141.5,211C 138.46,213.373 135.794,216.039 133.5,219C 134.101,220.605 135.101,221.938 136.5,223C 155.347,236.703 173.681,250.869 191.5,265.5C 170.434,250.931 150.101,235.431 130.5,219C 133.472,215.7 136.805,212.7 140.5,210C 142.365,208.699 144.365,208.365 146.5,209C 160.119,218.951 173.452,229.284 186.5,240C 189.52,242.001 192.52,243.668 195.5,245C 203.667,238.994 211.667,232.827 219.5,226.5C 204.148,214.809 188.815,203.142 173.5,191.5C 173.5,190.833 173.5,190.167 173.5,189.5 Z"/></g>
<g><path style="opacity:0.141" fill="#fefac0" d="M 243.5,243.5 C 248.194,245.52 252.194,248.52 255.5,252.5C 246.5,259.167 237.5,265.833 228.5,272.5C 225.912,271.806 223.579,270.64 221.5,269C 217.286,265.118 212.786,261.618 208,258.5C 207.251,257.365 207.417,256.365 208.5,255.5C 216.833,249 225.167,242.5 233.5,236C 234.5,235.333 235.5,235.333 236.5,236C 238.902,238.512 241.235,241.012 243.5,243.5 Z M 243.5,243.5 C 240.804,241.73 237.971,240.064 235,238.5C 226.666,244.673 218.5,251.006 210.5,257.5C 215.69,261.858 221.023,266.024 226.5,270C 227.5,270.667 228.5,270.667 229.5,270C 237.625,264.372 245.291,258.206 252.5,251.5C 249.239,249.051 246.239,246.384 243.5,243.5 Z"/></g>
<g><path style="opacity:0.004" fill="#fdf9e4" d="M 312.5,332.5 C 311.833,331.167 311.833,331.167 312.5,332.5 Z"/></g>
<g><path style="opacity:0.007" fill="#f5f2de" d="M 159.5,333.5 C 161.549,332.359 163.549,332.359 165.5,333.5C 165.5,333.833 165.5,334.167 165.5,334.5C 166.209,335.404 167.209,335.737 168.5,335.5C 169.167,346.167 169.833,346.167 170.5,335.5C 171.791,335.737 172.791,335.404 173.5,334.5C 173.5,334.167 173.5,333.833 173.5,333.5C 174.5,334.833 175.5,334.833 176.5,333.5C 176.5,333.833 176.5,334.167 176.5,334.5C 176.5,335.167 176.833,335.5 177.5,335.5C 177.492,338.545 177.159,341.545 176.5,344.5C 167.952,347.484 159.618,347.15 151.5,343.5C 152.414,340.272 152.747,336.939 152.5,333.5C 154.669,331.594 157.003,331.594 159.5,333.5 Z M 153.5,335.5 C 154.224,337.218 154.891,339.052 155.5,341C 155.167,341.167 154.833,341.333 154.5,341.5C 153.534,339.604 153.201,337.604 153.5,335.5 Z M 159.5,335.5 C 160.815,336.476 162.148,337.476 163.5,338.5C 164.776,339.614 164.776,340.614 163.5,341.5C 163.631,340.624 163.298,339.957 162.5,339.5C 161.583,340.127 160.583,340.461 159.5,340.5C 159.5,338.833 159.5,337.167 159.5,335.5 Z"/></g>
<g><path style="opacity:0.006" fill="#f3efdc" d="M 324.5,333.5 C 327.026,332.343 329.693,332.343 332.5,333.5C 332.5,334.167 332.5,334.833 332.5,335.5C 331.167,335.833 331.167,336.167 332.5,336.5C 332.5,336.833 332.5,337.167 332.5,337.5C 331.167,338.833 331.167,340.167 332.5,341.5C 332.328,342.492 332.662,343.158 333.5,343.5C 340.065,344.578 342.232,341.911 340,335.5C 339.617,334.944 339.117,334.611 338.5,334.5C 338.5,334.167 338.5,333.833 338.5,333.5C 340.5,332.167 342.5,332.167 344.5,333.5C 344.187,337.042 344.521,340.375 345.5,343.5C 345.5,343.833 345.5,344.167 345.5,344.5C 342.624,344.927 339.791,345.594 337,346.5C 336.055,346.095 335.388,345.428 335,344.5C 332.874,344.959 330.708,344.959 328.5,344.5C 329.833,343.5 329.833,342.5 328.5,341.5C 328.575,338.794 328.908,336.127 329.5,333.5C 327.833,333.5 326.167,333.5 324.5,333.5 Z"/></g>
<g><path style="opacity:0.608" fill="#716f65" d="M 173.5,333.5 C 173.5,333.833 173.5,334.167 173.5,334.5C 170.833,334.5 168.167,334.5 165.5,334.5C 165.5,334.167 165.5,333.833 165.5,333.5C 168.376,333.208 171.043,333.208 173.5,333.5 Z"/></g>
<g><path style="opacity:0.608" fill="#918f82" d="M 181.5,333.5 C 181.5,333.833 181.5,334.167 181.5,334.5C 179.833,334.5 178.167,334.5 176.5,334.5C 176.5,334.167 176.5,333.833 176.5,333.5C 178.194,333.446 179.86,333.446 181.5,333.5 Z"/></g>
<g><path style="opacity:0.621" fill="#827f73" d="M 267.5,333.5 C 267.5,333.833 267.5,334.167 267.5,334.5C 265.167,334.5 262.833,334.5 260.5,334.5C 260.842,333.662 261.508,333.328 262.5,333.5C 264.398,332.904 266.065,332.904 267.5,333.5 Z"/></g>
<g><path style="opacity:0.4" fill="#9a9885" d="M 144.5,334.5 C 144.842,333.662 145.508,333.328 146.5,333.5C 146.833,333.5 147.167,333.5 147.5,333.5C 147.5,336.167 147.5,338.833 147.5,341.5C 147.083,338.841 146.083,336.508 144.5,334.5 Z"/></g>
<g><path style="opacity:1" fill="#181715" d="M 159.5,341.5 C 160.833,341.5 162.167,341.5 163.5,341.5C 163.5,342.167 163.5,342.833 163.5,343.5C 161.5,343.5 159.5,343.5 157.5,343.5C 157.335,340.482 157.502,337.482 158,334.5C 158.186,337.036 158.686,339.369 159.5,341.5 Z"/></g>
<g><path style="opacity:0.998" fill="#1f1e1a" d="M 176.5,334.5 C 178.167,334.5 179.833,334.5 181.5,334.5C 180.377,336.979 180.377,339.312 181.5,341.5C 181.5,342.167 181.5,342.833 181.5,343.5C 180.127,343.657 178.793,343.49 177.5,343C 178.814,340.395 178.814,337.895 177.5,335.5C 176.833,335.5 176.5,335.167 176.5,334.5 Z"/></g>
<g><path style="opacity:0.606" fill="#828073" d="M 352.5,334.5 C 351.198,336.028 349.531,337.028 347.5,337.5C 346.957,337.44 346.624,337.107 346.5,336.5C 352.959,335.03 352.626,334.363 345.5,334.5C 345.5,337.5 345.5,340.5 345.5,343.5C 344.521,340.375 344.187,337.042 344.5,333.5C 346.494,333.556 348.661,333.223 351,332.5C 352.03,332.836 352.53,333.503 352.5,334.5 Z"/></g>
<g><path style="opacity:1" fill="#141312" d="M 347.5,337.5 C 348.978,337.238 350.311,337.571 351.5,338.5C 349.833,339.167 348.167,339.833 346.5,340.5C 346.624,341.107 346.957,341.44 347.5,341.5C 348.609,342.29 349.942,342.79 351.5,343C 349.527,343.495 347.527,343.662 345.5,343.5C 345.5,340.5 345.5,337.5 345.5,334.5C 352.626,334.363 352.959,335.03 346.5,336.5C 346.624,337.107 346.957,337.44 347.5,337.5 Z"/></g>
<g><path style="opacity:0.008" fill="#edead8" d="M 345.5,344.5 C 345.833,344.5 346.167,344.5 346.5,344.5C 346.833,345.833 347.167,345.833 347.5,344.5C 349.167,344.5 350.833,344.5 352.5,344.5C 352.5,343.5 352.5,342.5 352.5,341.5C 350.833,341.5 349.167,341.5 347.5,341.5C 346.957,341.44 346.624,341.107 346.5,340.5C 348.167,339.833 349.833,339.167 351.5,338.5C 350.311,337.571 348.978,337.238 347.5,337.5C 349.531,337.028 351.198,336.028 352.5,334.5C 354.083,336.508 355.083,338.841 355.5,341.5C 355.328,342.492 355.662,343.158 356.5,343.5C 358.369,341.365 359.036,338.698 358.5,335.5C 359.5,335.5 360.5,335.5 361.5,335.5C 361.38,337.199 361.046,338.865 360.5,340.5C 360.453,342 361.119,343 362.5,343.5C 362.026,341.207 362.692,339.041 364.5,337C 364.361,335.699 363.695,334.866 362.5,334.5C 360.735,333.539 358.735,333.205 356.5,333.5C 355.537,332.637 355.537,331.97 356.5,331.5C 357.967,332.695 359.467,332.695 361,331.5C 366.253,333.695 368.253,337.361 367,342.5C 364.786,345.075 361.953,346.408 358.5,346.5C 355.811,345.838 352.978,345.838 350,346.5C 348.014,346.431 346.514,345.765 345.5,344.5 Z"/></g>
<g><path style="opacity:0.244" fill="#aba99c" d="M 356.5,333.5 C 358.735,333.205 360.735,333.539 362.5,334.5C 360.5,334.5 358.5,334.5 356.5,334.5C 356.5,337.5 356.5,340.5 356.5,343.5C 355.662,343.158 355.328,342.492 355.5,341.5C 355.194,338.615 355.527,335.948 356.5,333.5 Z"/></g>
<g><path style="opacity:0.009" fill="#eae6d4" d="M 239.5,333.5 C 239.328,334.492 239.662,335.158 240.5,335.5C 241.766,337.694 241.766,340.028 240.5,342.5C 241.833,343.833 243.167,343.833 244.5,342.5C 243.652,340.591 243.318,338.591 243.5,336.5C 244.833,336.5 245.5,335.833 245.5,334.5C 246.151,333.909 246.818,333.243 247.5,332.5C 252.678,333.225 257.678,333.558 262.5,333.5C 261.508,333.328 260.842,333.662 260.5,334.5C 260.5,337.5 260.5,340.5 260.5,343.5C 262.924,343.808 265.257,343.474 267.5,342.5C 265.833,341.833 264.167,341.167 262.5,340.5C 263.689,339.571 265.022,339.238 266.5,339.5C 267.043,339.44 267.376,339.107 267.5,338.5C 265.955,337.548 264.288,337.215 262.5,337.5C 263.802,335.972 265.469,334.972 267.5,334.5C 267.5,334.167 267.5,333.833 267.5,333.5C 269.931,334.607 270.931,336.607 270.5,339.5C 269.987,342.154 269.32,344.321 268.5,346C 263.284,346.007 258.118,346.173 253,346.5C 252.055,346.095 251.388,345.428 251,344.5C 246,347.604 241.5,347.104 237.5,343C 240.274,341.395 240.94,339.228 239.5,336.5C 237.785,340.244 235.285,343.244 232,345.5C 229.501,344.917 227.501,343.584 226,341.5C 225.833,344.333 224.333,345.833 221.5,346C 215.545,347.042 209.878,346.542 204.5,344.5C 204.167,343.167 203.833,343.167 203.5,344.5C 200.283,346.842 196.95,347.009 193.5,345C 194.598,344.23 194.598,343.397 193.5,342.5C 192.883,342.611 192.383,342.944 192,343.5C 190.867,341.789 189.367,341.289 187.5,342C 187.833,342.333 188.167,342.667 188.5,343C 186.899,343.273 185.399,343.773 184,344.5C 183.667,344.167 183.333,343.833 183,343.5C 181.695,346.306 179.528,347.14 176.5,346C 177.056,345.617 177.389,345.117 177.5,344.5C 178.167,344.5 178.833,344.5 179.5,344.5C 179.833,345.833 180.167,345.833 180.5,344.5C 181.167,344.5 181.5,344.167 181.5,343.5C 181.5,342.833 181.5,342.167 181.5,341.5C 180.377,339.312 180.377,336.979 181.5,334.5C 181.5,334.167 181.5,333.833 181.5,333.5C 183.258,334.909 185.258,335.909 187.5,336.5C 192.4,334.266 197.566,332.932 203,332.5C 203.634,338.134 204.134,338.468 204.5,333.5C 206.92,333.708 209.253,333.374 211.5,332.5C 212.719,333.263 213.719,334.263 214.5,335.5C 215.182,334.757 215.849,334.091 216.5,333.5C 222.901,332.816 229.401,332.15 236,331.5C 236.915,332.328 237.581,333.328 238,334.5C 238.383,333.944 238.883,333.611 239.5,333.5 Z"/></g>
<g><path style="opacity:0.998" fill="#0f0f0b" d="M 240.5,335.5 C 241.601,334.402 242.934,334.235 244.5,335C 243.944,335.383 243.611,335.883 243.5,336.5C 243.318,338.591 243.652,340.591 244.5,342.5C 243.167,343.833 241.833,343.833 240.5,342.5C 241.766,340.028 241.766,337.694 240.5,335.5 Z"/></g>
<g><path style="opacity:0.999" fill="#1e1e17" d="M 216.5,333.5 C 219.365,333.055 221.865,333.722 224,335.5C 224.624,337.464 224.124,339.131 222.5,340.5C 222.977,341.478 223.643,342.311 224.5,343C 222.807,343.484 221.473,342.984 220.5,341.5C 220.48,339.857 221.147,338.524 222.5,337.5C 221.68,335.889 220.346,335.222 218.5,335.5C 218.5,338.167 218.5,340.833 218.5,343.5C 216.598,340.663 215.931,337.329 216.5,333.5 Z"/></g>
<g><path style="opacity:0.999" fill="#151512" d="M 207.5,337.5 C 208.833,338.167 210.167,338.833 211.5,339.5C 210.022,339.238 208.689,339.571 207.5,340.5C 209.167,341.167 210.833,341.833 212.5,342.5C 210.257,343.474 207.924,343.808 205.5,343.5C 205.5,340.5 205.5,337.5 205.5,334.5C 207.857,334.337 210.19,334.503 212.5,335C 210.256,335.05 208.589,335.883 207.5,337.5 Z"/></g>
<g><path style="opacity:0.133" fill="#b7b4a5" d="M 245.5,334.5 C 245.5,335.833 244.833,336.5 243.5,336.5C 243.611,335.883 243.944,335.383 244.5,335C 242.934,334.235 241.601,334.402 240.5,335.5C 239.662,335.158 239.328,334.492 239.5,333.5C 240.097,332.861 240.93,332.528 242,332.5C 243.699,332.387 244.866,333.053 245.5,334.5 Z"/></g>
<g><path style="opacity:0.392" fill="#a5a394" d="M 338.5,333.5 C 338.5,333.833 338.5,334.167 338.5,334.5C 336.833,334.5 335.167,334.5 333.5,334.5C 333.5,337.5 333.5,340.5 333.5,343.5C 332.662,343.158 332.328,342.492 332.5,341.5C 332.5,340.167 332.5,338.833 332.5,337.5C 332.5,337.167 332.5,336.833 332.5,336.5C 332.5,336.167 332.5,335.833 332.5,335.5C 332.5,334.833 332.5,334.167 332.5,333.5C 334.5,332.167 336.5,332.167 338.5,333.5 Z"/></g>
<g><path style="opacity:0.954" fill="#23221a" d="M 152.5,333.5 C 152.747,336.939 152.414,340.272 151.5,343.5C 149.208,343.756 147.041,343.423 145,342.5C 144.503,339.854 144.336,337.187 144.5,334.5C 146.083,336.508 147.083,338.841 147.5,341.5C 148.5,341.5 149.5,341.5 150.5,341.5C 149.964,338.302 150.631,335.635 152.5,333.5 Z"/></g>
<g><path style="opacity:0.008" fill="#e7e3d1" d="M 312.5,332.5 C 316.5,332.833 320.5,333.167 324.5,333.5C 324.5,333.833 324.5,334.167 324.5,334.5C 325.756,336.941 325.756,339.274 324.5,341.5C 324.631,340.761 324.464,340.094 324,339.5C 323.333,340.833 322.667,340.833 322,339.5C 318.656,345.08 314.156,346.08 308.5,342.5C 308.663,340.143 308.497,337.81 308,335.5C 306.274,334.424 304.441,334.257 302.5,335C 301.398,337.401 301.231,339.901 302,342.5C 303.699,343.406 305.533,343.739 307.5,343.5C 307.631,344.239 307.464,344.906 307,345.5C 305,344.833 303,344.167 301,343.5C 299.532,345.816 297.699,346.149 295.5,344.5C 294.167,345.167 292.833,345.833 291.5,346.5C 289.551,345.293 288.051,343.627 287,341.5C 283.617,343.814 280.117,344.98 276.5,345C 275.378,341.591 275.211,338.091 276,334.5C 276.383,333.944 276.883,333.611 277.5,333.5C 277.187,337.042 277.521,340.375 278.5,343.5C 279.404,342.791 279.737,341.791 279.5,340.5C 284.123,341.592 285.956,339.925 285,335.5C 284.329,334.748 283.496,334.414 282.5,334.5C 282.5,334.167 282.5,333.833 282.5,333.5C 283.93,333.579 285.264,333.246 286.5,332.5C 287.192,333.025 287.692,333.692 288,334.5C 291,333.167 294,333.167 297,334.5C 297.928,332.665 299.094,332.332 300.5,333.5C 303.994,331.567 307.66,331.567 311.5,333.5C 312.107,333.376 312.44,333.043 312.5,332.5 Z"/></g>
<g><path style="opacity:0.732" fill="#525047" d="M 277.5,333.5 C 279.167,333.5 280.833,333.5 282.5,333.5C 282.5,333.833 282.5,334.167 282.5,334.5C 281.167,334.5 279.833,334.5 278.5,334.5C 278.5,337.5 278.5,340.5 278.5,343.5C 277.521,340.375 277.187,337.042 277.5,333.5 Z"/></g>
<g><path style="opacity:0.999" fill="#11100d" d="M 282.5,334.5 C 283.496,334.414 284.329,334.748 285,335.5C 285.956,339.925 284.123,341.592 279.5,340.5C 279.737,341.791 279.404,342.791 278.5,343.5C 278.5,340.5 278.5,337.5 278.5,334.5C 279.833,334.5 281.167,334.5 282.5,334.5 Z"/></g>
<g><path style="opacity:0.018" fill="#e5e2d6" d="M 282.5,336.5 C 283.833,337.167 283.833,337.833 282.5,338.5C 279.833,337.833 279.833,337.167 282.5,336.5 Z"/></g>
<g><path style="opacity:0.506" fill="#706d63" d="M 282.5,336.5 C 279.833,337.167 279.833,337.833 282.5,338.5C 281.791,339.404 280.791,339.737 279.5,339.5C 279.5,338.167 279.5,336.833 279.5,335.5C 280.791,335.263 281.791,335.596 282.5,336.5 Z"/></g>
<g><path style="opacity:0.247" fill="#9f9c8f" d="M 324.5,334.5 C 324.5,334.167 324.5,333.833 324.5,333.5C 326.167,333.5 327.833,333.5 329.5,333.5C 328.908,336.127 328.575,338.794 328.5,341.5C 327.189,339.44 327.189,337.274 328.5,335C 327.207,334.51 325.873,334.343 324.5,334.5 Z"/></g>
<g><path style="opacity:0.945" fill="#131209" d="M 165.5,334.5 C 168.167,334.5 170.833,334.5 173.5,334.5C 172.791,335.404 171.791,335.737 170.5,335.5C 169.833,346.167 169.167,346.167 168.5,335.5C 167.209,335.737 166.209,335.404 165.5,334.5 Z"/></g>
<g><path style="opacity:0.452" fill="#817e74" d="M 177.5,335.5 C 178.814,337.895 178.814,340.395 177.5,343C 178.793,343.49 180.127,343.657 181.5,343.5C 181.5,344.167 181.167,344.5 180.5,344.5C 180.167,344.5 179.833,344.5 179.5,344.5C 178.833,344.5 178.167,344.5 177.5,344.5C 177.167,344.5 176.833,344.5 176.5,344.5C 177.159,341.545 177.492,338.545 177.5,335.5 Z"/></g>
<g><path style="opacity:0.627" fill="#6c6a61" d="M 207.5,337.5 C 209.288,337.215 210.955,337.548 212.5,338.5C 212.376,339.107 212.043,339.44 211.5,339.5C 210.167,338.833 208.833,338.167 207.5,337.5 Z"/></g>
<g><path style="opacity:0.971" fill="#1d1b16" d="M 248.5,335.5 C 250.808,334.286 253.141,334.286 255.5,335.5C 254.033,335.723 252.533,336.056 251,336.5C 250.506,338.134 250.34,339.801 250.5,341.5C 252.446,341.193 254.113,341.193 255.5,341.5C 253.956,343.446 251.956,343.946 249.5,343C 248.565,340.619 248.232,338.119 248.5,335.5 Z"/></g>
<g><path style="opacity:0.949" fill="#12120c" d="M 260.5,334.5 C 262.833,334.5 265.167,334.5 267.5,334.5C 265.469,334.972 263.802,335.972 262.5,337.5C 263.833,338.167 265.167,338.833 266.5,339.5C 265.022,339.238 263.689,339.571 262.5,340.5C 264.167,341.167 265.833,341.833 267.5,342.5C 265.257,343.474 262.924,343.808 260.5,343.5C 260.5,340.5 260.5,337.5 260.5,334.5 Z"/></g>
<g><path style="opacity:0.669" fill="#66645c" d="M 262.5,337.5 C 264.288,337.215 265.955,337.548 267.5,338.5C 267.376,339.107 267.043,339.44 266.5,339.5C 265.167,338.833 263.833,338.167 262.5,337.5 Z"/></g>
<g><path style="opacity:1" fill="#23211c" d="M 308.5,342.5 C 308.5,343.167 308.167,343.5 307.5,343.5C 305.533,343.739 303.699,343.406 302,342.5C 301.231,339.901 301.398,337.401 302.5,335C 304.441,334.257 306.274,334.424 308,335.5C 308.497,337.81 308.663,340.143 308.5,342.5 Z"/></g>
<g><path style="opacity:0.009" fill="#f5f2e1" d="M 152.5,333.5 C 150.631,335.635 149.964,338.302 150.5,341.5C 149.5,341.5 148.5,341.5 147.5,341.5C 147.5,338.833 147.5,336.167 147.5,333.5C 147.791,332.351 148.624,331.684 150,331.5C 151.376,331.684 152.209,332.351 152.5,333.5 Z"/></g>
<g><path style="opacity:0.654" fill="#4a483e" d="M 185.5,338.5 C 187.288,338.215 188.955,338.548 190.5,339.5C 189.667,339.833 188.833,340.167 188,340.5C 186.624,340.316 185.791,339.649 185.5,338.5 Z"/></g>
<g><path style="opacity:1" fill="#201f1a" d="M 200.5,343.5 C 198.097,343.552 195.764,343.219 193.5,342.5C 193.369,341.624 193.702,340.957 194.5,340.5C 201.029,341.511 201.029,341.011 194.5,339C 192.834,335.869 193.834,334.369 197.5,334.5C 198.5,334.833 199.5,335.167 200.5,335.5C 198.744,335.36 197.078,335.86 195.5,337C 197.351,337.837 199.184,338.671 201,339.5C 201.579,340.928 201.412,342.262 200.5,343.5 Z"/></g>
<g><path style="opacity:0.051" fill="#f2efe0" d="M 304.5,336.5 C 304.833,337.833 305.167,337.833 305.5,336.5C 306.451,337.919 306.784,339.585 306.5,341.5C 305.5,341.5 304.5,341.5 303.5,341.5C 303.216,339.585 303.549,337.919 304.5,336.5 Z"/></g>
<g><path style="opacity:1" fill="#1f1e18" d="M 362.5,334.5 C 363.695,334.866 364.361,335.699 364.5,337C 362.692,339.041 362.026,341.207 362.5,343.5C 361.119,343 360.453,342 360.5,340.5C 361.046,338.865 361.38,337.199 361.5,335.5C 360.5,335.5 359.5,335.5 358.5,335.5C 359.036,338.698 358.369,341.365 356.5,343.5C 356.5,340.5 356.5,337.5 356.5,334.5C 358.5,334.5 360.5,334.5 362.5,334.5 Z"/></g>
<g><path style="opacity:0.615" fill="#79766a" d="M 159.5,333.5 C 159.5,334.167 159.5,334.833 159.5,335.5C 159.5,337.167 159.5,338.833 159.5,340.5C 159.5,340.833 159.5,341.167 159.5,341.5C 158.686,339.369 158.186,337.036 158,334.5C 157.502,337.482 157.335,340.482 157.5,343.5C 159.5,343.5 161.5,343.5 163.5,343.5C 161.393,344.468 159.059,344.802 156.5,344.5C 156.5,340.833 156.5,337.167 156.5,333.5C 157.5,333.5 158.5,333.5 159.5,333.5 Z"/></g>
<g><path style="opacity:0.301" fill="#b7b7ac" d="M 220.5,341.5 C 219.833,342.167 219.167,342.833 218.5,343.5C 218.5,340.833 218.5,338.167 218.5,335.5C 220.346,335.222 221.68,335.889 222.5,337.5C 221.147,338.524 220.48,339.857 220.5,341.5 Z"/></g>
<g><path style="opacity:1" fill="#1b1b16" d="M 289.5,334.5 C 291.92,334.292 294.253,334.626 296.5,335.5C 296.833,336 297.167,336.5 297.5,337C 295.692,339.041 295.026,341.207 295.5,343.5C 294.119,343 293.453,342 293.5,340.5C 294.046,338.865 294.38,337.199 294.5,335.5C 293.5,335.5 292.5,335.5 291.5,335.5C 291.813,338.247 291.48,340.914 290.5,343.5C 289.516,340.572 289.183,337.572 289.5,334.5 Z"/></g>
<g><path style="opacity:0.013" fill="#fcf9e7" d="M 163.5,341.5 C 162.167,341.5 160.833,341.5 159.5,341.5C 159.5,341.167 159.5,340.833 159.5,340.5C 160.583,340.461 161.583,340.127 162.5,339.5C 163.298,339.957 163.631,340.624 163.5,341.5 Z"/></g>
<g><path style="opacity:0.996" fill="#181713" d="M 234.5,333.5 C 235.376,333.369 236.043,333.702 236.5,334.5C 235.199,337.427 234.199,340.427 233.5,343.5C 232.5,343.5 231.5,343.5 230.5,343.5C 230.145,340.933 229.479,338.433 228.5,336C 228.833,335.5 229.167,335 229.5,334.5C 230.333,336.5 231.167,338.5 232,340.5C 232.991,338.192 233.824,335.859 234.5,333.5 Z"/></g>
<g><path style="opacity:0.986" fill="#1a1814" d="M 312.5,334.5 C 314.516,335.486 315.849,337.153 316.5,339.5C 317.281,338.271 317.781,336.938 318,335.5C 318.893,334.289 319.726,334.289 320.5,335.5C 317.025,346.119 314.359,345.786 312.5,334.5 Z"/></g>
<g><path style="opacity:0.996" fill="#151410" d="M 324.5,334.5 C 325.873,334.343 327.207,334.51 328.5,335C 327.189,337.274 327.189,339.44 328.5,341.5C 328.38,342.586 327.713,343.253 326.5,343.5C 325.287,343.253 324.62,342.586 324.5,341.5C 325.756,339.274 325.756,336.941 324.5,334.5 Z"/></g>
<g><path style="opacity:0.005" fill="#e5e2d1" d="M 146.5,333.5 C 145.508,333.328 144.842,333.662 144.5,334.5C 144.336,337.187 144.503,339.854 145,342.5C 147.041,343.423 149.208,343.756 151.5,343.5C 151.5,344.833 150.833,345.5 149.5,345.5C 147.679,344.883 145.679,344.716 143.5,345C 142.874,344.25 142.374,343.416 142,342.5C 141.71,344.044 141.044,345.377 140,346.5C 137.595,345.726 135.095,345.226 132.5,345C 131.069,344.535 129.903,343.701 129,342.5C 128.333,339.833 128.333,337.167 129,334.5C 129.333,335.833 129.667,337.167 130,338.5C 130.129,335.997 131.129,333.997 133,332.5C 134.333,333.167 135.333,334.167 136,335.5C 137.144,333.083 138.81,332.416 141,333.5C 142.333,332.833 143.667,332.167 145,331.5C 145.717,332.044 146.217,332.711 146.5,333.5 Z"/></g>
<g><path style="opacity:1" fill="#191814" d="M 131.5,334.5 C 133.592,334.561 135.092,335.561 136,337.5C 136.908,335.561 138.408,334.561 140.5,334.5C 140.817,337.572 140.484,340.572 139.5,343.5C 138.702,341.922 138.202,340.256 138,338.5C 136.667,342.5 135.333,342.5 134,338.5C 133.798,340.256 133.298,341.922 132.5,343.5C 131.516,340.572 131.183,337.572 131.5,334.5 Z"/></g>
<g><path style="opacity:0.965" fill="#22211c" d="M 338.5,334.5 C 339.117,334.611 339.617,334.944 340,335.5C 342.232,341.911 340.065,344.578 333.5,343.5C 333.5,340.5 333.5,337.5 333.5,334.5C 335.167,334.5 336.833,334.5 338.5,334.5 Z"/></g>
<g><path style="opacity:0.041" fill="#f4f0e1" d="M 335.5,336.5 C 336.5,336.5 337.5,336.5 338.5,336.5C 338.5,338.167 338.5,339.833 338.5,341.5C 337.5,341.5 336.5,341.5 335.5,341.5C 335.5,339.833 335.5,338.167 335.5,336.5 Z"/></g>
<g><path style="opacity:0.397" fill="#a19e90" d="M 324.5,341.5 C 324.62,342.586 325.287,343.253 326.5,343.5C 327.713,343.253 328.38,342.586 328.5,341.5C 329.833,342.5 329.833,343.5 328.5,344.5C 326.833,344.5 325.167,344.5 323.5,344.5C 323.263,343.209 323.596,342.209 324.5,341.5 Z"/></g>
<g><path style="opacity:0.396" fill="#898679" d="M 347.5,341.5 C 349.167,341.5 350.833,341.5 352.5,341.5C 352.5,342.5 352.5,343.5 352.5,344.5C 350.833,344.5 349.167,344.5 347.5,344.5C 347.167,344.5 346.833,344.5 346.5,344.5C 346.167,344.5 345.833,344.5 345.5,344.5C 345.5,344.167 345.5,343.833 345.5,343.5C 347.527,343.662 349.527,343.495 351.5,343C 349.942,342.79 348.609,342.29 347.5,341.5 Z"/></g>
<g><path style="opacity:0.004" fill="#fefbe4" d="M 203.5,344.5 C 203.833,344.5 204.167,344.5 204.5,344.5C 204.315,345.17 203.981,345.17 203.5,344.5 Z"/></g>
<g><path style="opacity:0.004" fill="#fefbe4" d="M 149.5,345.5 C 149.103,346.525 148.437,346.692 147.5,346C 148.094,345.536 148.761,345.369 149.5,345.5 Z"/></g>
<g><path style="opacity:0.004" fill="#fefbe4" d="M 304.5,345.5 C 305.833,346.167 305.833,346.167 304.5,345.5 Z"/></g>
<g><path style="opacity:0.227" fill="#fefdc6" d="M 206.5,364.5 C 233.502,364.333 260.502,364.5 287.5,365C 288.406,366.699 288.739,368.533 288.5,370.5C 261.087,371.052 233.753,371.052 206.5,370.5C 205.62,368.389 205.62,366.389 206.5,364.5 Z"/></g>
<g><path style="opacity:0.892" fill="#f6e058" d="M 286.5,366.5 C 287.404,367.209 287.737,368.209 287.5,369.5C 261.167,369.5 234.833,369.5 208.5,369.5C 208.5,368.5 208.5,367.5 208.5,366.5C 234.5,366.5 260.5,366.5 286.5,366.5 Z"/></g>
<g><path style="opacity:0.55" fill="#fef896" d="M 286.5,366.5 C 260.5,366.5 234.5,366.5 208.5,366.5C 208.5,367.5 208.5,368.5 208.5,369.5C 207.566,368.432 207.232,367.099 207.5,365.5C 234.005,365.169 260.339,365.502 286.5,366.5 Z"/></g>
</svg>
